<svg id="svg" version="1.1" xmlns="http://www.w3.org/2000/svg" xmlns:xlink="http://www.w3.org/1999/xlink" width="400" height="395.02487562189054" viewBox="0, 0, 400,395.02487562189054"><g id="svgg"><path id="path0" d="M124.901 71.739 C 124.901 72.213,124.308 72.332,121.937 72.332 C 120.224 72.332,118.972 72.499,118.972 72.727 C 118.972 72.945,118.083 73.123,116.996 73.123 C 115.503 73.123,115.020 73.267,115.020 73.715 C 115.020 74.163,114.537 74.308,113.043 74.308 C 111.957 74.308,111.067 74.486,111.067 74.704 C 111.067 74.921,110.623 75.099,110.079 75.099 C 109.464 75.099,109.091 75.323,109.091 75.692 C 109.091 76.120,108.652 76.285,107.510 76.285 C 106.640 76.285,105.929 76.462,105.929 76.680 C 105.929 76.897,105.484 77.075,104.941 77.075 C 104.326 77.075,103.953 77.299,103.953 77.668 C 103.953 78.037,103.579 78.261,102.964 78.261 C 102.421 78.261,101.976 78.439,101.976 78.656 C 101.976 78.874,101.532 79.051,100.988 79.051 C 100.373 79.051,100.000 79.275,100.000 79.644 C 100.000 80.013,99.627 80.237,99.012 80.237 C 98.468 80.237,98.024 80.415,98.024 80.632 C 98.024 80.850,97.662 81.028,97.221 81.028 C 96.779 81.028,96.315 81.294,96.190 81.621 C 96.065 81.947,95.715 82.213,95.412 82.213 C 95.109 82.213,94.862 82.391,94.862 82.609 C 94.862 82.826,94.406 83.004,93.850 83.004 C 93.294 83.004,92.929 83.150,93.039 83.329 C 93.282 83.721,91.889 84.977,91.201 84.987 C 90.932 84.991,90.293 85.435,89.781 85.975 C 89.269 86.515,88.691 86.957,88.496 86.957 C 88.301 86.957,88.142 87.223,88.142 87.549 C 88.142 87.875,87.952 88.142,87.719 88.142 C 87.172 88.142,86.166 89.148,86.166 89.695 C 86.166 89.928,85.797 90.119,85.345 90.119 C 84.492 90.119,82.213 92.110,82.213 92.855 C 82.213 93.089,81.947 93.281,81.621 93.281 C 81.284 93.281,81.028 93.635,81.028 94.099 C 81.028 94.974,80.172 96.047,79.475 96.047 C 79.242 96.047,79.051 96.238,79.051 96.471 C 79.051 97.018,78.046 98.024,77.499 98.024 C 77.266 98.024,77.075 98.291,77.075 98.617 C 77.075 98.943,76.897 99.209,76.680 99.209 C 76.462 99.209,76.285 99.654,76.285 100.198 C 76.285 100.741,76.094 101.186,75.861 101.186 C 75.314 101.186,74.308 102.191,74.308 102.739 C 74.308 102.971,74.042 103.162,73.715 103.162 C 73.347 103.162,73.123 103.535,73.123 104.150 C 73.123 104.694,72.945 105.138,72.727 105.138 C 72.510 105.138,72.332 105.583,72.332 106.126 C 72.332 106.670,72.156 107.115,71.941 107.115 C 71.247 107.115,69.960 108.455,69.960 109.179 C 69.960 109.565,69.783 109.881,69.565 109.881 C 69.348 109.881,69.170 110.250,69.170 110.700 C 69.170 111.150,68.903 111.786,68.577 112.112 C 68.251 112.438,67.984 113.058,67.984 113.490 C 67.984 113.922,67.806 114.166,67.589 114.032 C 67.350 113.884,67.194 114.423,67.194 115.392 C 67.194 116.554,67.030 116.996,66.601 116.996 C 66.232 116.996,66.008 117.369,66.008 117.984 C 66.008 118.528,65.830 118.972,65.613 118.972 C 65.395 118.972,65.217 119.665,65.217 120.511 C 65.217 121.514,65.011 122.129,64.625 122.277 C 64.218 122.433,64.032 123.068,64.032 124.296 C 64.032 125.281,63.854 126.087,63.636 126.087 C 63.417 126.087,63.241 127.141,63.241 128.458 C 63.241 130.303,63.109 130.830,62.648 130.830 C 62.161 130.830,62.055 131.533,62.055 134.783 C 62.055 137.154,61.897 138.735,61.660 138.735 C 61.415 138.735,61.265 140.843,61.265 144.269 C 61.265 147.694,61.415 149.802,61.660 149.802 C 61.896 149.802,62.055 151.322,62.055 153.570 C 62.055 156.554,62.179 157.384,62.648 157.565 C 63.090 157.734,63.241 158.437,63.241 160.319 C 63.241 161.740,63.414 162.846,63.636 162.846 C 63.854 162.846,64.032 163.735,64.032 164.822 C 64.032 166.315,64.177 166.798,64.625 166.798 C 65.039 166.798,65.217 167.216,65.217 168.182 C 65.217 168.943,65.395 169.565,65.613 169.565 C 65.830 169.565,66.008 169.899,66.008 170.307 C 66.008 170.715,66.275 171.271,66.601 171.542 C 66.927 171.812,67.194 172.634,67.194 173.369 C 67.194 174.335,67.370 174.704,67.833 174.704 C 68.301 174.704,68.421 174.967,68.283 175.692 C 68.156 176.354,68.271 176.680,68.632 176.680 C 68.942 176.680,69.170 177.098,69.170 177.668 C 69.170 178.211,69.348 178.656,69.565 178.656 C 69.783 178.656,69.960 179.017,69.960 179.459 C 69.960 179.901,70.227 180.364,70.553 180.489 C 70.879 180.615,71.146 181.143,71.146 181.663 C 71.146 182.240,71.377 182.609,71.739 182.609 C 72.065 182.609,72.332 182.875,72.332 183.202 C 72.332 183.528,72.510 183.794,72.727 183.794 C 72.945 183.794,73.123 184.239,73.123 184.783 C 73.123 185.326,73.313 185.771,73.546 185.771 C 74.244 185.771,75.099 186.844,75.099 187.719 C 75.099 188.183,75.356 188.538,75.692 188.538 C 76.018 188.538,76.285 188.728,76.285 188.961 C 76.285 189.508,77.290 190.514,77.837 190.514 C 78.070 190.514,78.261 190.958,78.261 191.502 C 78.261 192.045,78.439 192.490,78.656 192.490 C 78.874 192.490,79.051 192.757,79.051 193.083 C 79.051 193.409,79.242 193.676,79.475 193.676 C 80.022 193.676,81.028 194.681,81.028 195.229 C 81.028 195.462,81.212 195.652,81.436 195.652 C 81.910 195.652,84.190 197.899,84.190 198.366 C 84.190 198.539,84.634 198.919,85.178 199.209 C 85.721 199.500,86.166 199.899,86.166 200.095 C 86.166 200.734,87.276 201.581,88.114 201.581 C 88.592 201.581,88.933 201.837,88.933 202.197 C 88.933 202.536,89.079 202.723,89.258 202.613 C 89.621 202.388,90.909 203.745,90.909 204.352 C 90.909 204.567,91.354 204.743,91.897 204.743 C 92.441 204.743,92.885 204.921,92.885 205.138 C 92.885 205.356,93.152 205.534,93.478 205.534 C 93.804 205.534,94.071 205.800,94.071 206.126 C 94.071 206.479,94.434 206.719,94.965 206.719 C 95.458 206.719,96.193 207.163,96.602 207.708 C 97.010 208.251,97.675 208.696,98.079 208.696 C 98.483 208.696,98.814 208.874,98.814 209.091 C 98.814 209.308,99.348 209.486,100.000 209.486 C 100.791 209.486,101.186 209.684,101.186 210.079 C 101.186 210.448,101.559 210.672,102.174 210.672 C 102.717 210.672,103.162 210.850,103.162 211.067 C 103.162 211.285,103.607 211.462,104.150 211.462 C 104.765 211.462,105.138 211.686,105.138 212.055 C 105.138 212.469,105.556 212.648,106.522 212.648 C 107.283 212.648,107.905 212.826,107.905 213.043 C 107.905 213.261,108.350 213.439,108.893 213.439 C 109.508 213.439,109.881 213.663,109.881 214.032 C 109.881 214.480,110.365 214.625,111.858 214.625 C 112.945 214.625,113.834 214.802,113.834 215.020 C 113.834 215.237,114.545 215.415,115.415 215.415 C 116.557 215.415,116.996 215.580,116.996 216.008 C 116.996 216.469,117.523 216.601,119.368 216.601 C 120.685 216.601,121.739 216.776,121.739 216.996 C 121.739 217.252,126.350 217.391,134.783 217.391 C 143.215 217.391,147.826 217.252,147.826 216.996 C 147.826 216.779,148.632 216.601,149.617 216.601 C 150.845 216.601,151.480 216.414,151.636 216.008 C 151.795 215.593,152.443 215.415,153.797 215.415 C 154.861 215.415,155.731 215.237,155.731 215.020 C 155.731 214.802,156.335 214.625,157.072 214.625 C 157.900 214.625,158.501 214.397,158.641 214.032 C 158.766 213.706,159.319 213.439,159.869 213.439 C 160.419 213.439,160.870 213.261,160.870 213.043 C 160.870 212.826,161.492 212.648,162.253 212.648 C 163.219 212.648,163.636 212.469,163.636 212.055 C 163.636 211.686,164.010 211.462,164.625 211.462 C 165.168 211.462,165.613 211.285,165.613 211.067 C 165.613 210.850,166.057 210.672,166.601 210.672 C 167.216 210.672,167.589 210.448,167.589 210.079 C 167.589 209.710,167.962 209.486,168.577 209.486 C 169.121 209.486,169.565 209.308,169.565 209.091 C 169.565 208.874,169.832 208.696,170.158 208.696 C 170.484 208.696,170.751 208.429,170.751 208.103 C 170.751 207.767,171.105 207.510,171.570 207.510 C 172.445 207.510,173.518 206.655,173.518 205.957 C 173.518 205.724,173.962 205.534,174.506 205.534 C 175.049 205.534,175.494 205.356,175.494 205.138 C 175.494 204.921,175.761 204.743,176.087 204.743 C 176.413 204.743,176.680 204.553,176.680 204.320 C 176.680 203.772,177.685 202.767,178.233 202.767 C 178.466 202.767,178.656 202.576,178.656 202.343 C 178.656 201.675,179.757 200.748,180.628 200.682 C 181.065 200.649,181.423 200.393,181.423 200.114 C 181.423 199.834,181.690 199.605,182.016 199.605 C 182.342 199.605,182.609 199.327,182.609 198.989 C 182.609 198.650,182.787 198.482,183.004 198.617 C 183.221 198.751,183.399 198.584,183.399 198.245 C 183.399 197.906,183.666 197.628,183.992 197.628 C 184.318 197.628,184.585 197.438,184.585 197.205 C 184.585 196.658,185.591 195.652,186.138 195.652 C 186.371 195.652,186.561 195.385,186.561 195.059 C 186.561 194.733,186.752 194.466,186.985 194.466 C 187.500 194.466,188.538 193.473,188.538 192.980 C 188.538 192.784,188.982 192.386,189.526 192.095 C 190.069 191.804,190.514 191.329,190.514 191.040 C 190.514 190.751,190.704 190.514,190.937 190.514 C 191.452 190.514,192.490 189.521,192.490 189.028 C 192.490 188.832,192.935 188.433,193.478 188.142 C 194.022 187.851,194.466 187.377,194.466 187.087 C 194.466 186.798,194.657 186.561,194.890 186.561 C 195.437 186.561,196.443 185.556,196.443 185.008 C 196.443 184.776,196.633 184.585,196.866 184.585 C 197.413 184.585,198.419 183.579,198.419 183.032 C 198.419 182.799,198.610 182.609,198.842 182.609 C 199.390 182.609,200.395 181.603,200.395 181.056 C 200.395 180.823,200.586 180.632,200.819 180.632 C 201.366 180.632,202.372 179.627,202.372 179.080 C 202.372 178.847,202.562 178.656,202.795 178.656 C 203.342 178.656,204.348 177.651,204.348 177.103 C 204.348 176.870,204.538 176.680,204.771 176.680 C 205.319 176.680,206.324 175.674,206.324 175.127 C 206.324 174.894,206.591 174.704,206.917 174.704 C 207.243 174.704,207.510 174.426,207.510 174.087 C 207.510 173.748,207.688 173.581,207.905 173.715 C 208.123 173.850,208.300 173.682,208.300 173.343 C 208.300 173.005,208.537 172.727,208.826 172.727 C 209.116 172.727,209.591 172.283,209.881 171.739 C 210.172 171.196,210.647 170.751,210.936 170.751 C 211.226 170.751,211.462 170.560,211.462 170.327 C 211.462 169.780,212.468 168.775,213.015 168.775 C 213.248 168.775,213.439 168.584,213.439 168.351 C 213.439 167.804,214.444 166.798,214.992 166.798 C 215.224 166.798,215.415 166.532,215.415 166.206 C 215.415 165.879,215.606 165.613,215.839 165.613 C 216.386 165.613,217.391 164.607,217.391 164.060 C 217.391 163.827,217.582 163.636,217.815 163.636 C 218.330 163.636,219.368 162.643,219.368 162.150 C 219.368 161.954,219.812 161.556,220.356 161.265 C 220.899 160.974,221.344 160.499,221.344 160.210 C 221.344 159.921,221.534 159.684,221.767 159.684 C 222.315 159.684,223.320 158.678,223.320 158.131 C 223.320 157.898,223.511 157.708,223.744 157.708 C 224.259 157.708,225.296 156.714,225.296 156.222 C 225.296 156.025,225.741 155.627,226.285 155.336 C 226.828 155.045,227.273 154.570,227.273 154.281 C 227.273 153.992,227.509 153.755,227.799 153.755 C 228.088 153.755,228.563 153.310,228.854 152.767 C 229.145 152.223,229.543 151.779,229.739 151.779 C 230.232 151.779,231.225 150.741,231.225 150.226 C 231.225 149.993,231.492 149.802,231.818 149.802 C 232.144 149.802,232.411 149.612,232.411 149.379 C 232.411 148.918,233.384 147.826,233.794 147.826 C 234.205 147.826,235.178 146.734,235.178 146.273 C 235.178 146.040,235.445 145.850,235.771 145.850 C 236.097 145.850,236.364 145.659,236.364 145.426 C 236.364 144.879,237.369 143.874,237.916 143.874 C 238.149 143.874,238.340 143.683,238.340 143.450 C 238.340 142.903,239.345 141.897,239.893 141.897 C 240.126 141.897,240.316 141.707,240.316 141.474 C 240.316 140.927,241.322 139.921,241.869 139.921 C 242.102 139.921,242.292 139.684,242.292 139.395 C 242.292 139.106,242.737 138.631,243.281 138.340 C 243.824 138.049,244.269 137.574,244.269 137.285 C 244.269 136.996,244.459 136.759,244.692 136.759 C 245.153 136.759,246.245 135.786,246.245 135.375 C 246.245 134.965,247.337 133.992,247.798 133.992 C 248.031 133.992,248.221 133.725,248.221 133.399 C 248.221 133.073,248.412 132.806,248.645 132.806 C 249.192 132.806,250.198 131.801,250.198 131.254 C 250.198 131.021,250.434 130.830,250.724 130.830 C 251.013 130.830,251.488 130.385,251.779 129.842 C 252.070 129.298,252.468 128.854,252.664 128.854 C 253.126 128.854,254.150 127.829,254.150 127.368 C 254.150 127.172,254.595 126.773,255.138 126.482 C 255.682 126.191,256.126 125.717,256.126 125.427 C 256.126 125.138,256.317 124.901,256.550 124.901 C 257.097 124.901,258.103 123.896,258.103 123.348 C 258.103 123.115,258.293 122.925,258.526 122.925 C 259.073 122.925,260.079 121.919,260.079 121.372 C 260.079 121.139,260.270 120.949,260.503 120.949 C 261.050 120.949,262.055 119.943,262.055 119.396 C 262.055 119.163,262.322 118.972,262.648 118.972 C 262.974 118.972,263.241 118.782,263.241 118.549 C 263.241 118.002,264.247 116.996,264.794 116.996 C 265.027 116.996,265.217 116.805,265.217 116.573 C 265.217 116.025,266.223 115.020,266.770 115.020 C 267.003 115.020,267.194 114.829,267.194 114.596 C 267.194 114.049,268.199 113.043,268.746 113.043 C 268.979 113.043,269.170 112.853,269.170 112.620 C 269.170 112.073,270.176 111.067,270.723 111.067 C 270.956 111.067,271.146 110.830,271.146 110.541 C 271.146 110.252,271.591 109.777,272.134 109.486 C 272.678 109.195,273.123 108.797,273.123 108.601 C 273.123 108.108,274.160 107.115,274.675 107.115 C 274.908 107.115,275.099 106.848,275.099 106.522 C 275.099 106.196,275.376 105.929,275.715 105.929 C 276.054 105.929,276.233 105.770,276.113 105.575 C 275.992 105.380,276.160 105.119,276.484 104.995 C 276.996 104.798,277.075 102.507,277.075 87.957 L 277.075 71.146 276.087 71.146 C 275.543 71.146,275.099 71.337,275.099 71.570 C 275.099 72.117,274.093 73.123,273.546 73.123 C 273.313 73.123,273.123 73.313,273.123 73.546 C 273.123 74.093,272.117 75.099,271.570 75.099 C 271.337 75.099,271.146 75.366,271.146 75.692 C 271.146 76.018,270.956 76.285,270.723 76.285 C 270.176 76.285,269.170 77.290,269.170 77.837 C 269.170 78.070,268.933 78.261,268.644 78.261 C 268.355 78.261,267.890 78.686,267.612 79.206 C 267.334 79.725,266.682 80.378,266.162 80.656 C 265.642 80.934,265.217 81.295,265.217 81.459 C 265.217 81.847,262.875 84.190,262.487 84.190 C 262.323 84.190,261.951 84.634,261.660 85.178 C 261.369 85.721,260.971 86.166,260.775 86.166 C 260.313 86.166,259.289 87.190,259.289 87.652 C 259.289 87.848,258.844 88.247,258.300 88.538 C 257.757 88.828,257.312 89.273,257.312 89.526 C 257.312 89.778,256.868 90.223,256.324 90.514 C 255.781 90.805,255.336 91.279,255.336 91.569 C 255.336 91.858,255.069 92.095,254.743 92.095 C 254.417 92.095,254.150 92.285,254.150 92.518 C 254.150 93.216,253.077 94.071,252.202 94.071 C 251.738 94.071,251.383 94.328,251.383 94.664 C 251.383 94.990,251.193 95.257,250.960 95.257 C 250.413 95.257,249.407 96.262,249.407 96.810 C 249.407 97.043,249.217 97.233,248.984 97.233 C 248.436 97.233,247.431 98.239,247.431 98.786 C 247.431 99.019,247.240 99.209,247.007 99.209 C 246.460 99.209,245.455 100.215,245.455 100.762 C 245.455 100.995,245.264 101.186,245.031 101.186 C 244.484 101.186,243.478 102.191,243.478 102.739 C 243.478 102.971,243.288 103.162,243.056 103.162 C 242.824 103.162,242.048 103.785,241.330 104.545 C 240.612 105.306,239.824 105.929,239.578 105.929 C 239.332 105.929,239.130 106.119,239.130 106.352 C 239.130 106.910,238.121 107.905,237.554 107.905 C 237.309 107.905,237.198 108.051,237.308 108.230 C 237.533 108.593,236.176 109.881,235.569 109.881 C 235.354 109.881,235.178 110.072,235.178 110.305 C 235.178 110.852,234.172 111.858,233.625 111.858 C 233.392 111.858,233.202 112.048,233.202 112.281 C 233.202 112.828,232.196 113.834,231.649 113.834 C 231.416 113.834,231.225 114.015,231.225 114.237 C 231.225 114.458,230.158 115.700,228.854 116.996 C 227.549 118.292,226.482 119.534,226.482 119.756 C 226.482 119.977,226.292 120.158,226.059 120.158 C 225.511 120.158,224.506 121.164,224.506 121.711 C 224.506 121.944,224.315 122.134,224.082 122.134 C 223.535 122.134,222.530 123.140,222.530 123.687 C 222.530 123.920,222.339 124.111,222.106 124.111 C 221.559 124.111,220.553 125.116,220.553 125.663 C 220.553 125.896,220.363 126.087,220.130 126.087 C 219.583 126.087,218.577 127.093,218.577 127.640 C 218.577 127.873,218.387 128.063,218.154 128.063 C 217.606 128.063,216.601 129.069,216.601 129.616 C 216.601 129.849,216.410 130.040,216.177 130.040 C 215.630 130.040,214.625 131.045,214.625 131.592 C 214.625 131.825,214.449 132.016,214.234 132.016 C 213.626 132.016,212.270 133.304,212.494 133.667 C 212.605 133.846,212.483 133.992,212.224 133.992 C 211.965 133.992,211.166 134.615,210.449 135.375 C 209.731 136.136,208.944 136.759,208.699 136.759 C 208.454 136.759,208.344 136.905,208.454 137.084 C 208.679 137.447,207.322 138.735,206.715 138.735 C 206.500 138.735,206.324 138.933,206.324 139.174 C 206.324 139.415,205.257 140.641,203.953 141.897 C 202.648 143.154,201.581 144.379,201.581 144.621 C 201.581 144.862,201.390 145.059,201.158 145.059 C 200.610 145.059,199.605 146.065,199.605 146.612 C 199.605 146.845,199.414 147.036,199.181 147.036 C 198.634 147.036,197.628 148.041,197.628 148.588 C 197.628 148.821,197.438 149.012,197.205 149.012 C 196.658 149.012,195.652 150.017,195.652 150.565 C 195.652 150.798,195.462 150.988,195.229 150.988 C 194.681 150.988,193.676 151.994,193.676 152.541 C 193.676 152.774,193.485 152.964,193.252 152.964 C 192.737 152.964,191.700 153.957,191.700 154.450 C 191.700 154.647,191.255 155.045,190.711 155.336 C 190.168 155.627,189.723 156.102,189.723 156.391 C 189.723 156.680,189.533 156.917,189.300 156.917 C 188.753 156.917,187.747 157.923,187.747 158.470 C 187.747 158.703,187.556 158.893,187.324 158.893 C 186.776 158.893,185.771 159.899,185.771 160.446 C 185.771 160.679,185.577 160.870,185.340 160.870 C 184.772 160.870,181.438 164.310,181.726 164.599 C 181.849 164.722,181.756 164.822,181.519 164.822 C 180.959 164.822,178.656 167.125,178.656 167.685 C 178.656 167.922,178.552 168.012,178.426 167.885 C 178.138 167.597,176.680 169.020,176.680 169.589 C 176.680 169.819,176.534 169.917,176.355 169.806 C 175.992 169.582,174.704 170.939,174.704 171.546 C 174.704 171.761,174.513 171.937,174.280 171.937 C 173.733 171.937,172.727 172.942,172.727 173.490 C 172.727 173.722,172.537 173.913,172.304 173.913 C 171.757 173.913,170.751 174.919,170.751 175.466 C 170.751 175.699,170.560 175.889,170.327 175.889 C 169.780 175.889,168.775 176.895,168.775 177.442 C 168.775 177.675,168.584 177.866,168.351 177.866 C 167.804 177.866,166.798 178.871,166.798 179.418 C 166.798 179.651,166.608 179.842,166.375 179.842 C 165.828 179.842,164.822 180.847,164.822 181.395 C 164.822 181.628,164.632 181.818,164.399 181.818 C 163.851 181.818,162.846 182.824,162.846 183.371 C 162.846 183.604,162.579 183.794,162.253 183.794 C 161.927 183.794,161.660 183.972,161.660 184.190 C 161.660 184.407,161.215 184.585,160.672 184.585 C 160.128 184.585,159.684 184.776,159.684 185.008 C 159.684 185.645,158.640 186.561,157.914 186.561 C 157.563 186.561,156.862 187.006,156.359 187.549 C 155.855 188.093,155.146 188.538,154.784 188.538 C 154.422 188.538,154.023 188.804,153.898 189.130 C 153.773 189.457,153.260 189.723,152.757 189.723 C 152.255 189.723,151.785 189.893,151.713 190.101 C 151.640 190.309,150.914 190.523,150.099 190.577 C 149.199 190.637,148.617 190.877,148.617 191.188 C 148.617 191.509,148.102 191.700,147.233 191.700 C 146.472 191.700,145.850 191.877,145.850 192.095 C 145.850 192.312,144.960 192.490,143.874 192.490 C 142.380 192.490,141.897 192.635,141.897 193.083 C 141.897 193.588,140.843 193.676,134.783 193.676 C 128.722 193.676,127.668 193.588,127.668 193.083 C 127.668 192.622,127.141 192.490,125.296 192.490 C 123.979 192.490,122.925 192.314,122.925 192.095 C 122.925 191.877,122.213 191.700,121.344 191.700 C 120.202 191.700,119.763 191.535,119.763 191.107 C 119.763 190.693,119.346 190.514,118.379 190.514 C 117.619 190.514,116.996 190.336,116.996 190.119 C 116.996 189.901,116.551 189.723,116.008 189.723 C 115.393 189.723,115.020 189.499,115.020 189.130 C 115.020 188.762,114.646 188.538,114.032 188.538 C 113.488 188.538,113.043 188.360,113.043 188.142 C 113.043 187.925,112.618 187.747,112.098 187.747 C 111.577 187.747,111.049 187.480,110.924 187.154 C 110.799 186.828,110.380 186.556,109.993 186.549 C 109.128 186.533,107.905 185.647,107.905 185.035 C 107.905 184.788,107.551 184.585,107.119 184.585 C 106.150 184.585,104.697 183.398,105.022 182.872 C 105.155 182.658,105.057 182.612,104.801 182.770 C 104.544 182.929,104.238 182.782,104.105 182.436 C 103.975 182.096,103.601 181.818,103.275 181.818 C 102.910 181.818,102.770 181.590,102.910 181.225 C 103.035 180.899,102.953 180.632,102.728 180.632 C 102.503 180.632,101.731 180.010,101.014 179.249 C 100.296 178.488,99.508 177.866,99.262 177.866 C 99.016 177.866,98.814 177.675,98.814 177.442 C 98.814 176.895,97.809 175.889,97.261 175.889 C 97.029 175.889,96.838 175.699,96.838 175.466 C 96.838 174.919,95.832 173.913,95.285 173.913 C 95.052 173.913,94.862 173.468,94.862 172.925 C 94.862 172.381,94.684 171.937,94.466 171.937 C 94.249 171.937,94.071 171.670,94.071 171.344 C 94.071 171.018,93.804 170.751,93.478 170.751 C 93.109 170.751,92.885 170.378,92.885 169.763 C 92.885 169.219,92.708 168.775,92.490 168.775 C 92.273 168.775,92.095 168.330,92.095 167.787 C 92.095 167.172,91.871 166.798,91.502 166.798 C 91.133 166.798,90.909 166.425,90.909 165.810 C 90.909 165.267,90.731 164.822,90.514 164.822 C 90.296 164.822,90.119 164.377,90.119 163.834 C 90.119 163.219,89.895 162.846,89.526 162.846 C 89.097 162.846,88.933 162.407,88.933 161.265 C 88.933 160.395,88.755 159.684,88.538 159.684 C 88.320 159.684,88.142 159.061,88.142 158.300 C 88.142 157.334,87.963 156.917,87.549 156.917 C 87.101 156.917,86.957 156.434,86.957 154.941 C 86.957 153.854,86.779 152.964,86.561 152.964 C 86.310 152.964,86.166 149.868,86.166 144.466 C 86.166 139.065,86.310 135.968,86.561 135.968 C 86.779 135.968,86.957 135.079,86.957 133.992 C 86.957 132.499,87.101 132.016,87.549 132.016 C 87.978 132.016,88.142 131.577,88.142 130.435 C 88.142 129.565,88.320 128.854,88.538 128.854 C 88.755 128.854,88.933 128.231,88.933 127.470 C 88.933 126.504,89.112 126.087,89.526 126.087 C 89.895 126.087,90.119 125.714,90.119 125.099 C 90.119 124.555,90.285 124.111,90.488 124.111 C 90.691 124.111,90.913 123.622,90.982 123.024 C 91.052 122.412,91.323 121.980,91.601 122.036 C 91.891 122.094,92.095 121.726,92.095 121.146 C 92.095 120.603,92.273 120.158,92.490 120.158 C 92.708 120.158,92.885 119.891,92.885 119.565 C 92.885 119.239,93.152 118.972,93.478 118.972 C 93.847 118.972,94.071 118.599,94.071 117.984 C 94.071 117.441,94.249 116.996,94.466 116.996 C 94.684 116.996,94.862 116.729,94.862 116.403 C 94.862 116.077,95.128 115.810,95.455 115.810 C 95.791 115.810,96.047 115.456,96.047 114.992 C 96.047 114.116,96.903 113.043,97.600 113.043 C 97.833 113.043,98.024 112.853,98.024 112.620 C 98.024 112.073,99.029 111.067,99.577 111.067 C 99.809 111.067,100.000 110.800,100.000 110.474 C 100.000 110.148,100.191 109.881,100.423 109.881 C 100.884 109.881,101.976 108.908,101.976 108.498 C 101.976 108.088,103.068 107.115,103.529 107.115 C 103.762 107.115,103.953 106.848,103.953 106.522 C 103.953 106.153,104.326 105.929,104.941 105.929 C 105.484 105.929,105.929 105.751,105.929 105.534 C 105.929 105.316,106.206 105.138,106.545 105.138 C 106.884 105.138,107.071 104.992,106.961 104.814 C 106.697 104.386,108.142 103.162,108.910 103.162 C 109.241 103.162,109.613 102.895,109.738 102.569 C 109.864 102.243,110.392 101.976,110.912 101.976 C 111.432 101.976,111.858 101.798,111.858 101.581 C 111.858 101.364,112.302 101.186,112.846 101.186 C 113.461 101.186,113.834 100.962,113.834 100.593 C 113.834 100.224,114.207 100.000,114.822 100.000 C 115.366 100.000,115.810 99.822,115.810 99.605 C 115.810 99.387,116.255 99.209,116.798 99.209 C 117.413 99.209,117.787 98.986,117.787 98.617 C 117.787 98.188,118.226 98.024,119.368 98.024 C 120.237 98.024,120.949 97.846,120.949 97.628 C 120.949 97.411,121.755 97.233,122.740 97.233 C 123.967 97.233,124.602 97.047,124.758 96.640 C 124.924 96.209,125.600 96.047,127.236 96.047 C 128.481 96.047,129.702 95.832,129.969 95.565 C 130.655 94.878,139.594 94.868,139.822 95.553 C 139.934 95.889,140.924 96.047,142.918 96.047 C 145.261 96.047,145.850 96.167,145.850 96.640 C 145.850 97.052,146.264 97.233,147.210 97.233 C 147.958 97.233,148.680 97.411,148.814 97.628 C 148.949 97.846,149.671 98.024,150.419 98.024 C 151.364 98.024,151.779 98.204,151.779 98.617 C 151.779 99.046,152.220 99.209,153.383 99.209 C 154.352 99.209,154.891 99.366,154.743 99.605 C 154.604 99.829,154.941 100.000,155.523 100.000 C 156.086 100.000,156.649 100.267,156.774 100.593 C 156.899 100.919,157.385 101.186,157.854 101.186 C 158.322 101.186,159.040 101.630,159.448 102.174 C 159.856 102.717,160.521 103.162,160.925 103.162 C 161.329 103.162,161.660 103.340,161.660 103.557 C 161.660 103.775,161.927 103.953,162.253 103.953 C 162.579 103.953,162.846 104.219,162.846 104.545 C 162.846 104.882,163.200 105.138,163.665 105.138 C 164.540 105.138,165.613 105.994,165.613 106.691 C 165.613 106.924,165.803 107.115,166.036 107.115 C 166.583 107.115,167.589 108.120,167.589 108.667 C 167.589 108.900,167.856 109.091,168.182 109.091 C 168.508 109.091,168.775 109.269,168.775 109.486 C 168.775 109.704,169.397 109.881,170.158 109.881 C 170.919 109.881,171.542 109.704,171.542 109.486 C 171.542 109.269,171.808 109.091,172.134 109.091 C 172.460 109.091,172.727 108.900,172.727 108.667 C 172.727 108.120,173.733 107.115,174.280 107.115 C 174.513 107.115,174.704 106.924,174.704 106.691 C 174.704 106.144,175.709 105.138,176.256 105.138 C 176.489 105.138,176.680 104.948,176.680 104.715 C 176.680 104.168,177.685 103.162,178.233 103.162 C 178.466 103.162,178.656 102.971,178.656 102.739 C 178.656 102.191,179.662 101.186,180.209 101.186 C 180.442 101.186,180.632 100.995,180.632 100.762 C 180.632 100.215,181.638 99.209,182.185 99.209 C 182.418 99.209,182.609 99.019,182.609 98.786 C 182.609 98.239,183.614 97.233,184.161 97.233 C 184.394 97.233,184.585 97.057,184.585 96.842 C 184.585 96.235,185.873 94.878,186.237 95.103 C 186.415 95.213,186.561 95.026,186.561 94.687 C 186.561 94.348,186.828 94.071,187.154 94.071 C 187.523 94.071,187.747 93.698,187.747 93.083 C 187.747 92.540,187.575 92.095,187.365 92.095 C 186.856 92.095,184.585 89.856,184.585 89.354 C 184.585 89.136,184.318 89.060,183.992 89.185 C 183.617 89.329,183.399 89.180,183.399 88.777 C 183.399 88.376,183.061 88.142,182.478 88.142 C 181.900 88.142,181.360 87.774,181.028 87.154 C 180.737 86.611,180.262 86.166,179.973 86.166 C 179.683 86.166,179.447 85.975,179.447 85.743 C 179.447 85.045,178.374 84.190,177.499 84.190 C 177.034 84.190,176.680 83.933,176.680 83.597 C 176.680 83.271,176.413 83.004,176.087 83.004 C 175.761 83.004,175.494 82.826,175.494 82.609 C 175.494 82.391,175.049 82.213,174.506 82.213 C 173.891 82.213,173.518 81.989,173.518 81.621 C 173.518 81.284,173.163 81.028,172.699 81.028 C 171.824 81.028,170.751 80.172,170.751 79.475 C 170.751 79.242,170.306 79.051,169.763 79.051 C 169.219 79.051,168.775 78.874,168.775 78.656 C 168.775 78.439,168.330 78.261,167.787 78.261 C 167.172 78.261,166.798 78.037,166.798 77.668 C 166.798 77.240,166.359 77.075,165.217 77.075 C 164.348 77.075,163.636 76.897,163.636 76.680 C 163.636 76.462,163.192 76.285,162.648 76.285 C 162.033 76.285,161.660 76.061,161.660 75.692 C 161.660 75.278,161.243 75.099,160.277 75.099 C 159.516 75.099,158.893 74.921,158.893 74.704 C 158.893 74.486,158.182 74.308,157.312 74.308 C 156.170 74.308,155.731 74.144,155.731 73.715 C 155.731 73.267,155.248 73.123,153.755 73.123 C 152.668 73.123,151.779 72.945,151.779 72.727 C 151.779 72.499,150.527 72.332,148.814 72.332 C 146.443 72.332,145.850 72.213,145.850 71.739 C 145.850 71.227,144.422 71.146,135.375 71.146 C 126.329 71.146,124.901 71.227,124.901 71.739 M20.048 105.538 C 19.674 105.975,19.368 106.603,19.368 106.934 C 19.368 107.264,19.101 107.637,18.775 107.762 C 17.521 108.243,18.151 109.091,19.763 109.091 L 21.344 109.091 21.344 106.917 C 21.344 104.566,21.101 104.308,20.048 105.538 M243.478 187.154 C 243.478 187.620,242.929 187.747,240.909 187.747 C 239.460 187.747,238.340 187.919,238.340 188.142 C 238.340 188.360,237.451 188.538,236.364 188.538 C 234.870 188.538,234.387 188.682,234.387 189.130 C 234.387 189.559,233.948 189.723,232.806 189.723 C 231.937 189.723,231.225 189.901,231.225 190.119 C 231.225 190.336,230.781 190.514,230.237 190.514 C 229.622 190.514,229.249 190.738,229.249 191.107 C 229.249 191.476,228.876 191.700,228.261 191.700 C 227.717 191.700,227.273 191.877,227.273 192.095 C 227.273 192.312,226.650 192.490,225.889 192.490 C 224.923 192.490,224.506 192.669,224.506 193.083 C 224.506 193.409,224.315 193.676,224.082 193.676 C 223.850 193.676,223.400 193.935,223.083 194.252 C 222.766 194.569,222.245 194.728,221.925 194.605 C 221.562 194.466,221.344 194.620,221.344 195.017 C 221.344 195.431,221.000 195.652,220.356 195.652 C 219.812 195.652,219.368 195.830,219.368 196.047 C 219.368 196.265,219.051 196.443,218.665 196.443 C 217.942 196.443,216.601 197.729,216.601 198.423 C 216.601 198.638,216.334 198.814,216.008 198.814 C 215.682 198.814,215.415 198.992,215.415 199.209 C 215.415 199.427,214.970 199.605,214.427 199.605 C 213.812 199.605,213.439 199.829,213.439 200.198 C 213.439 200.524,213.248 200.791,213.015 200.791 C 212.468 200.791,211.462 201.796,211.462 202.343 C 211.462 202.576,211.083 202.767,210.620 202.767 C 210.156 202.767,209.190 203.389,208.472 204.150 C 207.755 204.911,206.978 205.534,206.746 205.534 C 206.514 205.534,206.324 205.724,206.324 205.957 C 206.324 206.504,205.319 207.510,204.771 207.510 C 204.538 207.510,204.348 207.700,204.348 207.933 C 204.348 208.481,203.342 209.486,202.795 209.486 C 202.562 209.486,202.372 209.677,202.372 209.910 C 202.372 210.457,201.366 211.462,200.819 211.462 C 200.586 211.462,200.395 211.653,200.395 211.886 C 200.395 212.433,199.390 213.439,198.842 213.439 C 198.610 213.439,198.419 213.629,198.419 213.862 C 198.419 214.409,197.413 215.415,196.866 215.415 C 196.633 215.415,196.443 215.606,196.443 215.839 C 196.443 216.386,195.437 217.391,194.890 217.391 C 194.657 217.391,194.466 217.582,194.466 217.815 C 194.466 218.362,193.461 219.368,192.914 219.368 C 192.681 219.368,192.490 219.634,192.490 219.960 C 192.490 220.287,192.312 220.553,192.095 220.553 C 191.877 220.553,191.700 220.815,191.700 221.134 C 191.700 221.487,191.468 221.625,191.107 221.487 C 190.781 221.362,190.514 221.468,190.514 221.723 C 190.514 221.979,189.891 222.775,189.130 223.492 C 188.370 224.210,187.747 224.998,187.747 225.244 C 187.747 225.490,187.556 225.692,187.324 225.692 C 187.091 225.692,186.646 225.946,186.335 226.256 C 186.025 226.567,185.771 227.012,185.771 227.244 C 185.771 227.477,185.504 227.668,185.178 227.668 C 184.852 227.668,184.585 227.846,184.585 228.063 C 184.585 228.281,184.318 228.458,183.992 228.458 C 183.666 228.458,183.399 228.649,183.399 228.882 C 183.399 229.429,182.394 230.435,181.846 230.435 C 181.613 230.435,181.423 230.625,181.423 230.858 C 181.423 231.416,180.413 232.411,179.847 232.411 C 179.601 232.411,179.490 232.557,179.601 232.736 C 179.825 233.099,178.468 234.387,177.861 234.387 C 177.646 234.387,177.470 234.578,177.470 234.811 C 177.470 235.358,176.465 236.364,175.918 236.364 C 175.685 236.364,175.494 236.554,175.494 236.787 C 175.494 237.334,174.489 238.340,173.941 238.340 C 173.708 238.340,173.518 238.530,173.518 238.763 C 173.518 239.311,172.512 240.316,171.965 240.316 C 171.732 240.316,171.542 240.583,171.542 240.909 C 171.542 241.235,171.364 241.502,171.146 241.502 C 170.929 241.502,170.751 241.763,170.751 242.082 C 170.751 242.436,170.519 242.574,170.158 242.435 C 169.832 242.310,169.565 242.403,169.565 242.641 C 169.565 243.281,168.291 244.656,167.914 244.423 C 167.735 244.312,167.589 244.423,167.589 244.669 C 167.589 245.235,166.594 246.245,166.036 246.245 C 165.803 246.245,165.613 246.512,165.613 246.838 C 165.613 247.164,165.435 247.431,165.217 247.431 C 165.000 247.431,164.822 247.692,164.822 248.011 C 164.822 248.365,164.590 248.503,164.229 248.364 C 163.854 248.220,163.636 248.370,163.636 248.772 C 163.636 249.121,163.458 249.407,163.241 249.407 C 163.024 249.407,162.846 249.674,162.846 250.000 C 162.846 250.326,162.655 250.593,162.422 250.593 C 161.875 250.593,160.870 251.598,160.870 252.146 C 160.870 252.379,160.679 252.569,160.446 252.569 C 159.899 252.569,158.893 253.575,158.893 254.122 C 158.893 254.355,158.692 254.545,158.446 254.545 C 158.200 254.545,157.411 255.168,156.694 255.929 C 155.976 256.690,155.180 257.312,154.925 257.312 C 154.670 257.312,154.563 257.579,154.688 257.905 C 154.827 258.266,154.689 258.498,154.335 258.498 C 154.016 258.498,153.755 258.676,153.755 258.893 C 153.755 259.111,153.488 259.289,153.162 259.289 C 152.836 259.289,152.569 259.479,152.569 259.712 C 152.569 260.259,151.564 261.265,151.016 261.265 C 150.783 261.265,150.636 261.398,150.688 261.561 C 150.811 261.945,143.579 269.170,143.072 269.170 C 142.861 269.170,142.688 269.361,142.688 269.593 C 142.688 270.141,141.682 271.146,141.135 271.146 C 140.902 271.146,140.711 271.322,140.711 271.537 C 140.711 272.144,139.423 273.501,139.060 273.277 C 138.881 273.166,138.735 273.288,138.735 273.547 C 138.735 273.806,138.113 274.604,137.352 275.322 C 136.591 276.040,135.968 276.817,135.968 277.049 C 135.968 277.281,135.778 277.470,135.545 277.470 C 134.998 277.470,133.992 278.476,133.992 279.023 C 133.992 279.256,133.802 279.447,133.569 279.447 C 133.021 279.447,132.016 280.452,132.016 280.999 C 132.016 281.232,131.825 281.423,131.592 281.423 C 131.045 281.423,130.040 282.428,130.040 282.976 C 130.040 283.209,129.850 283.399,129.618 283.399 C 129.386 283.399,128.609 284.022,127.891 284.783 C 127.174 285.543,126.391 286.166,126.152 286.166 C 125.912 286.166,125.819 286.433,125.944 286.759 C 126.088 287.134,125.939 287.352,125.536 287.352 C 125.187 287.352,124.901 287.530,124.901 287.747 C 124.901 287.964,124.634 288.142,124.308 288.142 C 123.982 288.142,123.715 288.333,123.715 288.566 C 123.715 289.124,122.706 290.119,122.139 290.119 C 121.894 290.119,121.783 290.265,121.893 290.443 C 122.118 290.807,120.761 292.095,120.154 292.095 C 119.939 292.095,119.763 292.285,119.763 292.518 C 119.763 293.066,118.757 294.071,118.210 294.071 C 117.977 294.071,117.787 294.262,117.787 294.495 C 117.787 294.728,117.532 295.172,117.222 295.483 C 116.911 295.793,116.467 296.047,116.234 296.047 C 116.001 296.047,115.810 296.238,115.810 296.471 C 115.810 296.704,115.556 297.149,115.246 297.459 C 114.935 297.770,114.490 298.024,114.257 298.024 C 114.025 298.024,113.834 298.291,113.834 298.617 C 113.834 298.943,113.656 299.209,113.439 299.209 C 113.181 299.209,113.043 305.138,113.043 316.206 L 113.043 333.202 114.032 333.202 C 114.575 333.202,115.020 333.000,115.020 332.754 C 115.020 332.508,115.642 331.720,116.403 331.002 C 117.164 330.284,117.787 329.508,117.787 329.276 C 117.787 329.044,117.977 328.854,118.210 328.854 C 118.443 328.854,118.888 328.600,119.198 328.289 C 119.509 327.979,119.763 327.534,119.763 327.301 C 119.763 327.068,119.953 326.877,120.186 326.877 C 120.419 326.877,120.864 326.623,121.174 326.313 C 121.485 326.002,121.739 325.558,121.739 325.325 C 121.739 325.092,121.930 324.901,122.163 324.901 C 122.396 324.901,122.840 324.647,123.151 324.337 C 123.461 324.026,123.715 323.581,123.715 323.348 C 123.715 323.115,123.906 322.925,124.139 322.925 C 124.372 322.925,124.816 322.671,125.127 322.360 C 125.438 322.050,125.692 321.605,125.692 321.372 C 125.692 321.139,125.882 320.949,126.115 320.949 C 126.348 320.949,126.793 320.695,127.103 320.384 C 127.414 320.073,127.668 319.629,127.668 319.396 C 127.668 319.163,127.869 318.972,128.115 318.972 C 128.361 318.972,129.150 318.350,129.867 317.589 C 130.585 316.828,131.362 316.206,131.594 316.206 C 131.826 316.206,132.016 316.015,132.016 315.782 C 132.016 315.549,132.270 315.104,132.580 314.794 C 132.891 314.483,133.336 314.229,133.569 314.229 C 133.802 314.229,133.992 314.039,133.992 313.806 C 133.992 313.573,134.246 313.128,134.557 312.818 C 134.867 312.507,135.312 312.253,135.545 312.253 C 135.778 312.253,135.968 312.062,135.968 311.829 C 135.968 311.263,136.982 310.277,137.563 310.277 C 137.820 310.277,137.927 310.010,137.802 309.684 C 137.636 309.253,137.848 309.091,138.578 309.091 C 139.571 309.091,140.711 308.296,140.711 307.605 C 140.711 307.409,141.156 307.010,141.700 306.719 C 142.243 306.429,142.688 305.984,142.688 305.731 C 142.688 305.479,143.132 305.034,143.676 304.743 C 144.219 304.452,144.664 303.978,144.664 303.688 C 144.664 303.399,144.931 303.162,145.257 303.162 C 145.583 303.162,145.850 302.971,145.850 302.739 C 145.850 302.191,146.855 301.186,147.403 301.186 C 147.636 301.186,147.826 300.995,147.826 300.762 C 147.826 300.215,148.832 299.209,149.379 299.209 C 149.612 299.209,149.802 299.019,149.802 298.786 C 149.802 298.239,150.808 297.233,151.355 297.233 C 151.588 297.233,151.779 297.043,151.779 296.810 C 151.779 296.262,152.784 295.257,153.331 295.257 C 153.564 295.257,153.755 295.066,153.755 294.833 C 153.755 294.286,154.761 293.281,155.308 293.281 C 155.541 293.281,155.731 293.097,155.731 292.872 C 155.731 292.459,157.950 290.119,158.342 290.119 C 158.719 290.119,159.684 289.002,159.684 288.566 C 159.684 288.333,159.921 288.142,160.210 288.142 C 160.499 288.142,160.963 287.717,161.242 287.198 C 161.520 286.678,162.172 286.026,162.692 285.747 C 163.211 285.469,163.636 285.005,163.636 284.716 C 163.636 284.426,163.827 284.190,164.060 284.190 C 164.607 284.190,165.613 283.184,165.613 282.637 C 165.613 282.404,165.803 282.213,166.036 282.213 C 166.551 282.213,167.589 281.220,167.589 280.727 C 167.589 280.531,168.034 280.133,168.577 279.842 C 169.121 279.551,169.565 279.076,169.565 278.787 C 169.565 278.498,169.802 278.261,170.091 278.261 C 170.381 278.261,170.855 277.816,171.146 277.273 C 171.437 276.729,171.912 276.285,172.201 276.285 C 172.491 276.285,172.727 276.112,172.727 275.902 C 172.727 275.402,181.726 266.403,182.226 266.403 C 182.437 266.403,182.609 266.213,182.609 265.980 C 182.609 265.432,183.614 264.427,184.161 264.427 C 184.394 264.427,184.585 264.243,184.585 264.018 C 184.585 263.605,186.804 261.265,187.196 261.265 C 187.573 261.265,188.538 260.148,188.538 259.712 C 188.538 259.479,188.834 259.289,189.196 259.289 C 189.559 259.289,189.751 259.185,189.625 259.058 C 189.395 258.828,190.706 257.312,191.135 257.312 C 191.523 257.312,192.490 256.204,192.490 255.759 C 192.490 255.527,192.681 255.336,192.914 255.336 C 193.461 255.336,194.466 254.330,194.466 253.783 C 194.466 253.550,194.733 253.360,195.059 253.360 C 195.385 253.360,195.652 253.082,195.652 252.743 C 195.652 252.405,195.830 252.237,196.047 252.372 C 196.265 252.506,196.443 252.339,196.443 252.000 C 196.443 251.661,196.709 251.383,197.036 251.383 C 197.362 251.383,197.628 251.206,197.628 250.988 C 197.628 250.771,198.340 249.881,199.209 249.012 C 200.079 248.142,200.968 247.431,201.186 247.431 C 201.403 247.431,201.581 247.240,201.581 247.007 C 201.581 246.774,201.835 246.330,202.146 246.019 C 202.456 245.709,202.901 245.455,203.134 245.455 C 203.367 245.455,203.557 245.264,203.557 245.031 C 203.557 244.798,203.811 244.353,204.122 244.043 C 204.433 243.732,204.877 243.478,205.110 243.478 C 205.343 243.478,205.534 243.288,205.534 243.055 C 205.534 242.508,206.539 241.502,207.086 241.502 C 207.319 241.502,207.510 241.311,207.510 241.078 C 207.510 240.531,208.515 239.526,209.063 239.526 C 209.296 239.526,209.486 239.348,209.486 239.130 C 209.486 238.913,210.198 238.024,211.067 237.154 C 211.937 236.285,212.826 235.573,213.043 235.573 C 213.261 235.573,213.439 235.389,213.439 235.165 C 213.439 234.640,215.709 232.411,216.242 232.411 C 216.465 232.411,216.538 232.233,216.403 232.016 C 216.269 231.798,216.436 231.621,216.775 231.621 C 217.114 231.621,217.391 231.354,217.391 231.028 C 217.391 230.702,217.628 230.435,217.917 230.435 C 218.207 230.435,218.671 230.010,218.949 229.490 C 219.227 228.971,219.880 228.318,220.399 228.040 C 220.919 227.762,221.344 227.298,221.344 227.008 C 221.344 226.719,221.534 226.482,221.767 226.482 C 222.204 226.482,223.320 225.518,223.320 225.141 C 223.320 224.749,225.660 222.530,226.074 222.530 C 226.298 222.530,226.482 222.339,226.482 222.106 C 226.482 221.559,227.488 220.553,228.035 220.553 C 228.268 220.553,228.458 220.287,228.458 219.960 C 228.458 219.624,228.813 219.368,229.277 219.368 C 230.152 219.368,231.225 218.512,231.225 217.815 C 231.225 217.582,231.670 217.391,232.213 217.391 C 232.757 217.391,233.202 217.213,233.202 216.996 C 233.202 216.779,233.468 216.601,233.794 216.601 C 234.121 216.601,234.387 216.334,234.387 216.008 C 234.387 215.639,234.761 215.415,235.375 215.415 C 235.919 215.415,236.364 215.237,236.364 215.020 C 236.364 214.802,236.725 214.625,237.167 214.625 C 237.608 214.625,238.072 214.358,238.197 214.032 C 238.337 213.666,238.938 213.439,239.766 213.439 C 240.503 213.439,241.107 213.261,241.107 213.043 C 241.107 212.826,241.818 212.648,242.688 212.648 C 243.830 212.648,244.269 212.484,244.269 212.055 C 244.269 211.589,244.818 211.462,246.838 211.462 C 248.287 211.462,249.407 211.290,249.407 211.067 C 249.407 210.821,251.647 210.672,255.336 210.672 C 258.827 210.672,261.265 210.827,261.265 211.048 C 261.265 211.255,262.376 211.478,263.735 211.542 C 265.184 211.611,266.176 211.832,266.133 212.075 C 266.093 212.303,266.716 212.534,267.516 212.587 C 268.317 212.639,269.032 212.853,269.104 213.061 C 269.177 213.269,269.932 213.439,270.784 213.439 C 271.897 213.439,272.332 213.606,272.332 214.032 C 272.332 214.401,272.705 214.625,273.320 214.625 C 273.864 214.625,274.308 214.802,274.308 215.020 C 274.308 215.237,274.753 215.415,275.296 215.415 C 275.911 215.415,276.285 215.639,276.285 216.008 C 276.285 216.377,276.658 216.601,277.273 216.601 C 277.816 216.601,278.261 216.779,278.261 216.996 C 278.261 217.213,278.706 217.391,279.249 217.391 C 279.864 217.391,280.237 217.615,280.237 217.984 C 280.237 218.320,280.592 218.577,281.056 218.577 C 281.931 218.577,283.004 219.432,283.004 220.130 C 283.004 220.363,283.271 220.553,283.597 220.553 C 283.923 220.553,284.190 220.731,284.190 220.949 C 284.190 221.166,284.634 221.344,285.178 221.344 C 285.721 221.344,286.166 221.534,286.166 221.767 C 286.166 222.315,287.172 223.320,287.719 223.320 C 287.952 223.320,288.142 223.496,288.142 223.711 C 288.142 224.318,289.430 225.675,289.794 225.450 C 289.972 225.340,290.119 225.436,290.119 225.664 C 290.119 226.289,291.399 227.656,291.770 227.427 C 291.949 227.316,292.095 227.503,292.095 227.842 C 292.095 228.181,292.273 228.458,292.490 228.458 C 292.708 228.458,292.885 228.903,292.885 229.447 C 292.885 230.061,293.109 230.435,293.478 230.435 C 293.804 230.435,294.071 230.702,294.071 231.028 C 294.071 231.354,294.348 231.621,294.687 231.621 C 295.026 231.621,295.194 231.798,295.059 232.016 C 294.925 232.233,295.092 232.411,295.431 232.411 C 295.825 232.411,296.047 232.768,296.047 233.399 C 296.047 233.943,296.225 234.387,296.443 234.387 C 296.660 234.387,296.838 234.832,296.838 235.375 C 296.838 235.990,297.062 236.364,297.431 236.364 C 297.757 236.364,298.024 236.630,298.024 236.957 C 298.024 237.283,298.202 237.549,298.419 237.549 C 298.636 237.549,298.814 237.911,298.814 238.352 C 298.814 238.794,299.081 239.258,299.407 239.383 C 299.773 239.523,300.000 240.124,300.000 240.951 C 300.000 241.880,300.182 242.292,300.593 242.292 C 300.962 242.292,301.186 242.666,301.186 243.281 C 301.186 243.824,301.364 244.269,301.581 244.269 C 301.798 244.269,301.976 245.158,301.976 246.245 C 301.976 247.738,302.121 248.221,302.569 248.221 C 303.035 248.221,303.162 248.770,303.162 250.791 C 303.162 252.240,303.334 253.360,303.557 253.360 C 303.805 253.360,303.953 255.797,303.953 259.881 C 303.953 263.748,303.799 266.403,303.576 266.403 C 303.369 266.403,303.147 267.515,303.082 268.874 C 303.000 270.591,302.814 271.314,302.470 271.245 C 302.128 271.177,301.976 271.752,301.976 273.123 C 301.976 274.209,301.798 275.099,301.581 275.099 C 301.364 275.099,301.186 275.632,301.186 276.285 C 301.186 277.075,300.988 277.470,300.593 277.470 C 300.182 277.470,300.000 277.883,300.000 278.811 C 300.000 279.639,299.773 280.240,299.407 280.380 C 299.081 280.505,298.814 280.969,298.814 281.411 C 298.814 281.852,298.636 282.213,298.419 282.213 C 298.202 282.213,298.024 282.480,298.024 282.806 C 298.024 283.132,297.795 283.399,297.515 283.399 C 297.235 283.399,296.976 283.797,296.940 284.283 C 296.903 284.769,296.687 285.228,296.460 285.304 C 296.233 285.379,296.047 285.871,296.047 286.397 C 296.047 286.922,295.857 287.352,295.624 287.352 C 295.097 287.352,294.071 288.349,294.071 288.862 C 294.071 289.072,293.804 289.346,293.478 289.471 C 293.152 289.596,292.885 289.984,292.885 290.332 C 292.885 291.052,291.967 292.095,291.333 292.095 C 291.100 292.095,290.909 292.285,290.909 292.518 C 290.909 293.066,289.904 294.071,289.356 294.071 C 289.123 294.071,288.933 294.262,288.933 294.495 C 288.933 295.042,287.927 296.047,287.380 296.047 C 287.147 296.047,286.957 296.238,286.957 296.471 C 286.957 297.168,285.884 298.024,285.008 298.024 C 284.544 298.024,284.190 298.280,284.190 298.617 C 284.190 298.943,283.923 299.209,283.597 299.209 C 283.271 299.209,283.004 299.400,283.004 299.633 C 283.004 300.330,281.931 301.186,281.056 301.186 C 280.606 301.186,280.237 301.364,280.237 301.581 C 280.237 301.798,279.792 301.976,279.249 301.976 C 278.634 301.976,278.261 302.200,278.261 302.569 C 278.261 302.895,277.994 303.162,277.668 303.162 C 277.342 303.162,277.075 303.429,277.075 303.755 C 277.075 304.124,276.702 304.348,276.087 304.348 C 275.543 304.348,275.099 304.526,275.099 304.743 C 275.099 304.960,274.476 305.138,273.715 305.138 C 272.749 305.138,272.332 305.317,272.332 305.731 C 272.332 306.159,271.893 306.324,270.751 306.324 C 269.881 306.324,269.170 306.502,269.170 306.719 C 269.170 306.937,268.542 307.115,267.774 307.115 C 266.898 307.115,266.294 307.335,266.151 307.708 C 265.984 308.142,265.300 308.300,263.594 308.300 C 262.305 308.300,261.265 308.477,261.265 308.696 C 261.265 308.943,258.827 309.091,254.743 309.091 C 250.659 309.091,248.221 308.943,248.221 308.696 C 248.221 308.477,247.181 308.300,245.892 308.300 C 244.186 308.300,243.502 308.142,243.335 307.708 C 243.193 307.335,242.588 307.115,241.712 307.115 C 240.944 307.115,240.316 306.937,240.316 306.719 C 240.316 306.502,239.605 306.324,238.735 306.324 C 237.593 306.324,237.154 306.159,237.154 305.731 C 237.154 305.362,236.781 305.138,236.166 305.138 C 235.623 305.138,235.178 304.960,235.178 304.743 C 235.178 304.526,234.733 304.348,234.190 304.348 C 233.575 304.348,233.202 304.124,233.202 303.755 C 233.202 303.386,232.828 303.162,232.213 303.162 C 231.599 303.162,231.225 302.938,231.225 302.569 C 231.225 302.217,230.862 301.976,230.331 301.976 C 229.838 301.976,229.103 301.532,228.695 300.988 C 228.286 300.445,227.622 300.000,227.217 300.000 C 226.813 300.000,226.482 299.822,226.482 299.605 C 226.482 299.387,226.215 299.209,225.889 299.209 C 225.563 299.209,225.296 298.943,225.296 298.617 C 225.296 298.280,224.942 298.024,224.478 298.024 C 223.590 298.024,222.530 297.166,222.530 296.448 C 222.530 296.202,222.384 296.091,222.205 296.201 C 221.842 296.426,220.553 295.069,220.553 294.462 C 220.553 294.247,220.109 294.071,219.565 294.071 C 218.950 294.071,218.577 294.295,218.577 294.664 C 218.577 294.990,218.387 295.257,218.154 295.257 C 217.606 295.257,216.601 296.262,216.601 296.810 C 216.601 297.043,216.364 297.233,216.075 297.233 C 215.785 297.233,215.311 297.678,215.020 298.221 C 214.729 298.765,214.329 299.209,214.131 299.209 C 213.636 299.209,210.451 302.472,210.573 302.854 C 210.627 303.023,210.405 303.162,210.079 303.162 C 209.753 303.162,209.486 303.429,209.486 303.755 C 209.486 304.081,209.296 304.348,209.063 304.348 C 208.515 304.348,207.510 305.353,207.510 305.901 C 207.510 306.134,207.319 306.324,207.086 306.324 C 206.539 306.324,205.534 307.330,205.534 307.877 C 205.534 308.110,205.343 308.300,205.110 308.300 C 204.563 308.300,203.557 309.306,203.557 309.853 C 203.557 310.086,203.291 310.277,202.964 310.277 C 202.596 310.277,202.372 310.650,202.372 311.265 C 202.372 311.808,202.562 312.253,202.795 312.253 C 203.342 312.253,204.348 313.259,204.348 313.806 C 204.348 314.039,204.538 314.229,204.771 314.229 C 205.319 314.229,206.324 315.235,206.324 315.782 C 206.324 316.015,206.515 316.206,206.748 316.206 C 207.295 316.206,208.300 317.211,208.300 317.758 C 208.300 317.991,208.745 318.182,209.289 318.182 C 209.832 318.182,210.277 318.360,210.277 318.577 C 210.277 318.794,210.543 318.972,210.870 318.972 C 211.196 318.972,211.462 319.163,211.462 319.396 C 211.462 320.150,212.566 320.949,213.608 320.949 C 214.167 320.949,214.625 321.139,214.625 321.372 C 214.625 322.070,215.697 322.925,216.573 322.925 C 217.037 322.925,217.391 323.182,217.391 323.518 C 217.391 323.887,217.765 324.111,218.379 324.111 C 218.923 324.111,219.368 324.289,219.368 324.506 C 219.368 324.723,219.812 324.901,220.356 324.901 C 220.971 324.901,221.344 325.125,221.344 325.494 C 221.344 325.863,221.717 326.087,222.332 326.087 C 222.875 326.087,223.320 326.265,223.320 326.482 C 223.320 326.700,223.746 326.877,224.266 326.877 C 224.786 326.877,225.314 327.144,225.439 327.470 C 225.565 327.796,226.028 328.063,226.470 328.063 C 226.911 328.063,227.273 328.241,227.273 328.458 C 227.273 328.676,227.984 328.854,228.854 328.854 C 229.996 328.854,230.435 329.018,230.435 329.447 C 230.435 329.857,230.847 330.040,231.776 330.040 C 232.514 330.040,233.206 330.270,233.314 330.553 C 233.424 330.841,234.267 331.109,235.234 331.165 C 236.181 331.220,237.016 331.434,237.088 331.640 C 237.161 331.847,238.628 332.016,240.349 332.016 C 242.814 332.016,243.478 332.137,243.478 332.587 C 243.478 333.072,245.275 333.163,255.336 333.190 C 265.716 333.218,267.194 333.147,267.194 332.619 C 267.194 332.146,267.700 332.016,269.542 332.016 C 270.833 332.016,272.000 331.838,272.134 331.621 C 272.269 331.403,273.174 331.225,274.146 331.225 C 275.353 331.225,275.986 331.037,276.142 330.632 C 276.282 330.267,276.883 330.040,277.710 330.040 C 278.639 330.040,279.051 329.857,279.051 329.447 C 279.051 329.018,279.491 328.854,280.632 328.854 C 281.502 328.854,282.213 328.676,282.213 328.458 C 282.213 328.241,282.658 328.063,283.202 328.063 C 283.816 328.063,284.190 327.839,284.190 327.470 C 284.190 327.101,284.563 326.877,285.178 326.877 C 285.721 326.877,286.166 326.700,286.166 326.482 C 286.166 326.265,286.611 326.087,287.154 326.087 C 287.769 326.087,288.142 325.863,288.142 325.494 C 288.142 325.125,288.516 324.901,289.130 324.901 C 289.674 324.901,290.119 324.723,290.119 324.506 C 290.119 324.289,290.480 324.111,290.921 324.111 C 291.363 324.111,291.827 323.844,291.952 323.518 C 292.077 323.192,292.529 322.925,292.956 322.925 C 293.795 322.925,294.862 322.056,294.862 321.372 C 294.862 321.139,295.306 320.949,295.850 320.949 C 296.393 320.949,296.838 320.771,296.838 320.553 C 296.838 320.336,297.105 320.158,297.431 320.158 C 297.757 320.158,298.024 319.891,298.024 319.565 C 298.024 319.226,298.380 318.972,298.855 318.972 C 299.350 318.972,300.626 318.013,302.008 316.601 C 303.284 315.296,304.510 314.229,304.733 314.229 C 304.956 314.229,305.138 313.962,305.138 313.636 C 305.138 313.294,305.496 313.043,305.984 313.043 C 306.931 313.043,307.873 312.019,307.893 310.968 C 307.899 310.588,308.191 310.277,308.540 310.277 C 308.943 310.277,309.092 310.059,308.948 309.684 C 308.814 309.336,308.943 309.091,309.259 309.091 C 309.555 309.091,309.904 308.813,310.034 308.473 C 310.164 308.133,310.450 307.966,310.669 308.101 C 310.888 308.236,311.067 308.147,311.067 307.902 C 311.067 307.657,311.690 306.870,312.451 306.152 C 313.211 305.434,313.834 304.468,313.834 304.005 C 313.834 303.519,314.085 303.162,314.427 303.162 C 314.753 303.162,315.020 302.895,315.020 302.569 C 315.020 302.243,315.198 301.976,315.415 301.976 C 315.632 301.976,315.810 301.532,315.810 300.988 C 315.810 300.445,316.001 300.000,316.234 300.000 C 316.931 300.000,317.787 298.927,317.787 298.052 C 317.787 297.588,318.043 297.233,318.379 297.233 C 318.748 297.233,318.972 296.860,318.972 296.245 C 318.972 295.702,319.150 295.257,319.368 295.257 C 319.585 295.257,319.763 294.831,319.763 294.311 C 319.763 293.791,320.030 293.263,320.356 293.138 C 320.682 293.013,320.949 292.549,320.949 292.107 C 320.949 291.666,321.126 291.304,321.344 291.304 C 321.561 291.304,321.739 290.879,321.739 290.358 C 321.739 289.838,322.006 289.310,322.332 289.185 C 322.658 289.060,322.925 288.596,322.925 288.155 C 322.925 287.713,323.103 287.352,323.320 287.352 C 323.538 287.352,323.715 286.640,323.715 285.771 C 323.715 284.629,323.880 284.190,324.308 284.190 C 324.722 284.190,324.901 283.773,324.901 282.806 C 324.901 282.045,325.079 281.423,325.296 281.423 C 325.514 281.423,325.692 280.553,325.692 279.489 C 325.692 278.134,325.869 277.487,326.285 277.327 C 326.721 277.160,326.877 276.470,326.877 274.716 C 326.877 273.390,327.053 272.332,327.273 272.332 C 327.528 272.332,327.668 267.918,327.668 259.881 C 327.668 251.845,327.528 247.431,327.273 247.431 C 327.050 247.431,326.877 246.311,326.877 244.862 C 326.877 242.841,326.751 242.292,326.285 242.292 C 325.837 242.292,325.692 241.809,325.692 240.316 C 325.692 239.229,325.514 238.340,325.296 238.340 C 325.079 238.340,324.901 237.717,324.901 236.957 C 324.901 235.990,324.722 235.573,324.308 235.573 C 323.880 235.573,323.715 235.134,323.715 233.992 C 323.715 233.123,323.538 232.411,323.320 232.411 C 323.103 232.411,322.925 231.966,322.925 231.423 C 322.925 230.808,322.701 230.435,322.332 230.435 C 321.963 230.435,321.739 230.061,321.739 229.447 C 321.739 228.903,321.561 228.458,321.344 228.458 C 321.126 228.458,320.949 228.014,320.949 227.470 C 320.949 226.856,320.725 226.482,320.356 226.482 C 319.987 226.482,319.763 226.109,319.763 225.494 C 319.763 224.951,319.585 224.506,319.368 224.506 C 319.150 224.506,318.972 224.061,318.972 223.518 C 318.972 222.903,318.748 222.530,318.379 222.530 C 318.011 222.530,317.787 222.156,317.787 221.542 C 317.787 220.998,317.609 220.553,317.391 220.553 C 317.174 220.553,316.996 220.276,316.996 219.937 C 316.996 219.598,316.817 219.432,316.598 219.567 C 316.379 219.702,316.096 219.490,315.969 219.096 C 315.469 217.543,314.862 216.601,314.360 216.601 C 314.062 216.601,313.834 216.172,313.834 215.613 C 313.834 215.069,313.656 214.625,313.439 214.625 C 313.221 214.625,313.043 214.358,313.043 214.032 C 313.043 213.706,312.853 213.439,312.620 213.439 C 312.073 213.439,311.067 212.433,311.067 211.886 C 311.067 211.653,310.877 211.462,310.644 211.462 C 310.096 211.462,309.091 210.457,309.091 209.910 C 309.091 209.677,308.824 209.486,308.498 209.486 C 308.162 209.486,307.905 209.132,307.905 208.667 C 307.905 207.626,307.114 206.831,305.894 206.647 C 305.370 206.568,304.985 206.285,305.040 206.018 C 305.094 205.752,304.872 205.534,304.545 205.534 C 304.219 205.534,303.953 205.356,303.953 205.138 C 303.953 204.921,303.691 204.743,303.372 204.743 C 303.018 204.743,302.881 204.511,303.019 204.150 C 303.144 203.824,303.038 203.557,302.783 203.557 C 302.527 203.557,301.731 202.935,301.014 202.174 C 300.296 201.413,299.330 200.791,298.866 200.791 C 298.381 200.791,298.024 200.539,298.024 200.198 C 298.024 199.872,297.757 199.605,297.431 199.605 C 297.105 199.605,296.838 199.427,296.838 199.209 C 296.838 198.992,296.393 198.814,295.850 198.814 C 295.306 198.814,294.862 198.638,294.862 198.423 C 294.862 197.729,293.521 196.443,292.798 196.443 C 292.411 196.443,292.095 196.265,292.095 196.047 C 292.095 195.830,291.650 195.652,291.107 195.652 C 290.463 195.652,290.119 195.431,290.119 195.017 C 290.119 194.620,289.900 194.466,289.537 194.605 C 289.217 194.728,288.696 194.569,288.380 194.252 C 288.063 193.935,287.435 193.676,286.985 193.676 C 286.520 193.676,286.166 193.419,286.166 193.083 C 286.166 192.718,285.795 192.490,285.201 192.490 C 284.671 192.490,284.126 192.312,283.992 192.095 C 283.858 191.877,283.403 191.700,282.981 191.700 C 282.559 191.700,282.213 191.433,282.213 191.107 C 282.213 190.679,281.774 190.514,280.632 190.514 C 279.763 190.514,279.051 190.336,279.051 190.119 C 279.051 189.901,278.423 189.723,277.656 189.723 C 276.779 189.723,276.175 189.503,276.032 189.130 C 275.878 188.730,275.250 188.538,274.092 188.538 C 273.150 188.538,272.269 188.360,272.134 188.142 C 272.000 187.925,270.567 187.747,268.949 187.747 C 266.598 187.747,266.008 187.628,266.008 187.154 C 266.008 186.641,264.493 186.561,254.743 186.561 C 244.993 186.561,243.478 186.641,243.478 187.154 M18.676 325.328 C 19.056 325.550,19.368 326.078,19.368 326.502 C 19.368 326.926,19.545 327.273,19.763 327.273 C 19.980 327.273,20.158 327.717,20.158 328.261 C 20.158 328.876,20.382 329.249,20.751 329.249 C 21.206 329.249,21.344 328.744,21.344 327.075 L 21.344 324.901 19.664 324.913 C 18.331 324.923,18.127 325.008,18.676 325.328 " stroke="none" fill="#ecbc64" fill-rule="evenodd"></path><path id="path1" d="M0.000 54.545 L 0.000 109.091 8.893 109.091 C 16.184 109.091,17.787 108.993,17.787 108.546 C 17.787 108.247,18.053 107.781,18.379 107.510 C 18.706 107.239,18.972 106.775,18.972 106.478 C 18.972 105.756,20.206 104.348,20.839 104.348 C 21.246 104.348,21.344 96.265,21.344 62.846 L 21.344 21.344 65.217 21.344 L 109.091 21.344 109.091 10.672 L 109.091 0.000 54.545 0.000 L 0.000 0.000 0.000 54.545 M288.142 10.672 L 288.142 21.344 332.806 21.344 L 377.470 21.344 377.470 65.217 L 377.470 109.091 388.735 109.091 L 400.000 109.091 400.000 54.545 L 400.000 0.000 344.071 0.000 L 288.142 0.000 288.142 10.672 M0.000 341.700 L 0.000 395.257 54.545 395.257 L 109.091 395.257 109.091 383.992 L 109.091 372.727 65.217 372.727 L 21.344 372.727 21.344 351.232 C 21.344 330.069,21.332 329.733,20.553 329.530 C 20.080 329.406,19.763 328.991,19.763 328.496 C 19.763 328.040,19.585 327.668,19.368 327.668 C 19.150 327.668,18.972 327.334,18.972 326.926 C 18.972 326.518,18.707 325.964,18.384 325.695 C 17.502 324.963,18.041 324.506,19.786 324.506 L 21.344 324.506 21.344 306.324 L 21.344 288.142 10.672 288.142 L 0.000 288.142 0.000 341.700 M377.470 330.435 L 377.470 372.727 332.806 372.727 L 288.142 372.727 288.142 383.992 L 288.142 395.257 344.071 395.257 L 400.000 395.257 400.000 341.700 L 400.000 288.142 388.735 288.142 L 377.470 288.142 377.470 330.435 " stroke="none" fill="#5c5c5c" fill-rule="evenodd"></path><path id="path2" d="M133.893 95.148 C 134.600 95.235,135.756 95.235,136.462 95.148 C 137.169 95.060,136.591 94.988,135.178 94.988 C 133.765 94.988,133.187 95.060,133.893 95.148 M19.653 105.143 C 19.279 105.580,18.972 106.181,18.972 106.478 C 18.972 106.775,18.706 107.239,18.379 107.510 C 18.053 107.781,17.801 108.291,17.818 108.645 C 17.844 109.184,17.885 109.193,18.073 108.696 C 18.197 108.370,18.538 107.961,18.833 107.787 C 19.127 107.613,19.368 107.189,19.368 106.844 C 19.368 106.499,19.821 105.797,20.376 105.282 C 20.954 104.747,21.160 104.348,20.859 104.348 C 20.570 104.348,20.027 104.706,19.653 105.143 M18.012 324.856 C 17.893 325.049,18.060 325.427,18.384 325.695 C 18.707 325.964,18.972 326.518,18.972 326.926 C 18.972 327.334,19.138 327.668,19.340 327.668 C 19.542 327.668,19.765 328.066,19.834 328.553 C 19.904 329.040,20.227 329.458,20.553 329.481 C 20.895 329.505,20.937 329.453,20.652 329.357 C 20.380 329.266,20.158 328.759,20.158 328.232 C 20.158 327.704,19.980 327.273,19.763 327.273 C 19.545 327.273,19.368 326.911,19.368 326.470 C 19.368 326.028,19.056 325.539,18.676 325.383 C 18.192 325.184,18.518 325.028,19.763 324.862 L 21.542 324.625 19.885 324.565 C 18.974 324.533,18.131 324.664,18.012 324.856 " stroke="none" fill="#c8c060" fill-rule="evenodd"></path></g></svg>